<mxfile host="app.diagrams.net" modified="2024-06-06T08:22:31.782Z" agent="Mozilla/5.0 (Windows NT 10.0; Win64; x64) AppleWebKit/537.36 (KHTML, like Gecko) Chrome/125.0.0.0 Safari/537.36" etag="HaTpo3oVZN28MGCzy_Yk" version="24.4.14" type="device">
  <diagram name="Page-1" id="7aU-DmErPbNACfZzl7Jn">
    <mxGraphModel dx="1050" dy="522" grid="1" gridSize="10" guides="1" tooltips="1" connect="1" arrows="1" fold="1" page="1" pageScale="1" pageWidth="850" pageHeight="1100" math="0" shadow="0">
      <root>
        <mxCell id="0" />
        <mxCell id="1" parent="0" />
        <UserObject label="&lt;span style=&quot;&quot; id=&quot;docs-internal-guid-2bbb11c0-7fff-a88c-8499-4cba0eefd9b6&quot;&gt;&lt;font face=&quot;Arial&quot;&gt;&lt;ol style=&quot;font-weight: bold; margin-top: 0px; margin-bottom: 0px; padding-inline-start: 48px;&quot;&gt;&lt;li dir=&quot;ltr&quot; style=&quot;list-style-type: decimal; font-size: 18pt; color: rgb(0, 0, 0); background-color: transparent; font-weight: 400; font-style: normal; font-variant: normal; text-decoration: none; vertical-align: baseline; white-space: pre;&quot; aria-level=&quot;1&quot;&gt;&lt;p dir=&quot;ltr&quot; style=&quot;line-height: 1.38; margin-top: 0pt; margin-bottom: 12pt;&quot; role=&quot;presentation&quot;&gt;&lt;span style=&quot;font-size: 18pt; color: rgb(0, 0, 0); background-color: transparent; font-weight: 400; font-style: normal; font-variant: normal; text-decoration: none; vertical-align: baseline; white-space: pre-wrap;&quot;&gt;Encoder fine-tuning → fine-tune the CLIP visual encoder with three classification heads to &lt;/span&gt;&lt;span style=&quot;font-size: 18pt; color: rgb(0, 0, 0); background-color: transparent; font-weight: 700; font-style: normal; font-variant: normal; text-decoration: none; vertical-align: baseline; white-space: pre-wrap;&quot;&gt;learn useful representations&lt;/span&gt;&lt;/p&gt;&lt;/li&gt;&lt;/ol&gt;&lt;div style=&quot;&quot;&gt;&lt;span style=&quot;font-size: 24px; white-space-collapse: preserve;&quot;&gt;&lt;b&gt;&lt;br&gt;&lt;/b&gt;&lt;/span&gt;&lt;/div&gt;&lt;div style=&quot;&quot;&gt;&lt;span style=&quot;font-size: 24px; white-space-collapse: preserve;&quot;&gt;&lt;b&gt;&lt;br&gt;&lt;/b&gt;&lt;/span&gt;&lt;/div&gt;&lt;div style=&quot;&quot;&gt;&lt;span style=&quot;font-size: 24px; white-space-collapse: preserve;&quot;&gt;&lt;b&gt;&lt;br&gt;&lt;/b&gt;&lt;/span&gt;&lt;/div&gt;&lt;ol style=&quot;font-weight: bold; margin-top: 0px; margin-bottom: 0px; padding-inline-start: 48px;&quot; start=&quot;2&quot;&gt;&lt;li dir=&quot;ltr&quot; style=&quot;list-style-type: decimal; font-size: 18pt; color: rgb(0, 0, 0); background-color: transparent; font-weight: 400; font-style: normal; font-variant: normal; text-decoration: none; vertical-align: baseline; white-space: pre;&quot; aria-level=&quot;1&quot;&gt;&lt;p dir=&quot;ltr&quot; style=&quot;line-height:1.38;margin-top:0pt;margin-bottom:12pt;&quot; role=&quot;presentation&quot;&gt;&lt;span style=&quot;font-size: 18pt; color: rgb(0, 0, 0); background-color: transparent; font-weight: 400; font-style: normal; font-variant: normal; text-decoration: none; vertical-align: baseline; white-space: pre-wrap;&quot;&gt;Tactile feature alignment → &lt;/span&gt;&lt;span style=&quot;font-size: 18pt; color: rgb(0, 0, 0); background-color: transparent; font-weight: 700; font-style: normal; font-variant: normal; text-decoration: none; vertical-align: baseline; white-space: pre-wrap;&quot;&gt;train LLM to understand tactile signals&lt;/span&gt;&lt;span style=&quot;font-size: 18pt; color: rgb(0, 0, 0); background-color: transparent; font-weight: 400; font-style: normal; font-variant: normal; text-decoration: none; vertical-align: baseline; white-space: pre-wrap;&quot;&gt; by mapping encoder outputs to LLM embeddings&lt;/span&gt;&lt;/p&gt;&lt;/li&gt;&lt;/ol&gt;&lt;div&gt;&lt;span style=&quot;font-size: 24px; white-space-collapse: preserve;&quot;&gt;&lt;br&gt;&lt;/span&gt;&lt;/div&gt;&lt;div&gt;&lt;span style=&quot;font-size: 24px; white-space-collapse: preserve;&quot;&gt;&lt;br&gt;&lt;/span&gt;&lt;/div&gt;&lt;div&gt;&lt;span style=&quot;font-size: 24px; white-space-collapse: preserve;&quot;&gt;&lt;br&gt;&lt;/span&gt;&lt;/div&gt;&lt;ol style=&quot;font-weight: bold; margin-top: 0px; margin-bottom: 0px; padding-inline-start: 48px;&quot; start=&quot;3&quot;&gt;&lt;li dir=&quot;ltr&quot; style=&quot;list-style-type: decimal; font-size: 18pt; color: rgb(0, 0, 0); background-color: transparent; font-weight: 400; font-style: normal; font-variant: normal; text-decoration: none; vertical-align: baseline; white-space: pre;&quot; aria-level=&quot;1&quot;&gt;&lt;p dir=&quot;ltr&quot; style=&quot;line-height: 1.38; margin-top: 0pt; margin-bottom: 12pt;&quot; role=&quot;presentation&quot;&gt;&lt;span style=&quot;font-size: 18pt; color: rgb(0, 0, 0); background-color: transparent; font-weight: 400; font-style: normal; font-variant: normal; text-decoration: none; vertical-align: baseline; white-space: pre-wrap;&quot;&gt;End-to-end fine-tuning → &lt;/span&gt;&lt;span style=&quot;font-size: 18pt; color: rgb(0, 0, 0); background-color: transparent; font-weight: 700; font-style: normal; font-variant: normal; text-decoration: none; vertical-align: baseline; white-space: pre-wrap;&quot;&gt;improves &lt;/span&gt;&lt;span style=&quot;font-size: 18pt; color: rgb(0, 0, 0); background-color: transparent; font-weight: 400; font-style: normal; font-variant: normal; text-decoration: none; vertical-align: baseline; white-space: pre-wrap;&quot;&gt;task performance&lt;/span&gt;&lt;/p&gt;&lt;/li&gt;&lt;/ol&gt;&lt;/font&gt;&lt;/span&gt;" link="&lt;b style=&quot;font-weight:normal;&quot; id=&quot;docs-internal-guid-2bbb11c0-7fff-a88c-8499-4cba0eefd9b6&quot;&gt;&lt;ol style=&quot;margin-top:0;margin-bottom:0;padding-inline-start:48px;&quot;&gt;&lt;li dir=&quot;ltr&quot; style=&quot;list-style-type:decimal;font-size:18pt;font-family:Arial,sans-serif;color:#000000;background-color:transparent;font-weight:400;font-style:normal;font-variant:normal;text-decoration:none;vertical-align:baseline;white-space:pre;&quot; aria-level=&quot;1&quot;&gt;&lt;p dir=&quot;ltr&quot; style=&quot;line-height:1.38;margin-top:0pt;margin-bottom:12pt;&quot; role=&quot;presentation&quot;&gt;&lt;span style=&quot;font-size:18pt;font-family:Arial,sans-serif;color:#000000;background-color:transparent;font-weight:400;font-style:normal;font-variant:normal;text-decoration:none;vertical-align:baseline;white-space:pre;white-space:pre-wrap;&quot;&gt;Encoder fine-tuning → fine-tune a pre-trained CLIP visual encoder with classification heads to &lt;/span&gt;&lt;span style=&quot;font-size:18pt;font-family:Arial,sans-serif;color:#000000;background-color:transparent;font-weight:700;font-style:normal;font-variant:normal;text-decoration:none;vertical-align:baseline;white-space:pre;white-space:pre-wrap;&quot;&gt;learn useful representations&lt;/span&gt;&lt;/p&gt;&lt;/li&gt;&lt;/ol&gt;&lt;img width=&quot;60px;&quot; height=&quot;60px;&quot; src=&quot;https://lh7-us.googleusercontent.com/slidesz/AGV_vUcghesRFLyrsCkUmgtdYCzv_2RIe86jTc7Vz4ZWC24YJNNIeJuJQaNBn86Fgo5a0L9VIQbT1O2VtOzjG3XzE_hvvaEBcyiQyjPVTl_PxbhjOcjCkj8mBPPSkB845TORXTpSadQcXtfLT4QrkiedL3bEu3CXaEd6=s2048?key=fCGoqWm9a3Y12y-OlNXN6w&quot;&gt;&lt;br&gt;&lt;p dir=&quot;ltr&quot; style=&quot;line-height:1.2;text-align: center;margin-top:0pt;margin-bottom:0pt;&quot;&gt;&lt;span style=&quot;font-size:13.999999999999998pt;font-family:Arial,sans-serif;color:#000000;background-color:transparent;font-weight:400;font-style:normal;font-variant:normal;text-decoration:none;vertical-align:baseline;white-space:pre;white-space:pre-wrap;&quot;&gt;Encoder&lt;/span&gt;&lt;/p&gt;&lt;br&gt;&lt;ol style=&quot;margin-top:0;margin-bottom:0;padding-inline-start:48px;&quot; start=&quot;2&quot;&gt;&lt;li dir=&quot;ltr&quot; style=&quot;list-style-type:decimal;font-size:18pt;font-family:Arial,sans-serif;color:#000000;background-color:transparent;font-weight:400;font-style:normal;font-variant:normal;text-decoration:none;vertical-align:baseline;white-space:pre;&quot; aria-level=&quot;1&quot;&gt;&lt;p dir=&quot;ltr&quot; style=&quot;line-height:1.38;margin-top:0pt;margin-bottom:12pt;&quot; role=&quot;presentation&quot;&gt;&lt;span style=&quot;font-size:18pt;font-family:Arial,sans-serif;color:#000000;background-color:transparent;font-weight:400;font-style:normal;font-variant:normal;text-decoration:none;vertical-align:baseline;white-space:pre;white-space:pre-wrap;&quot;&gt;Tactile feature alignment → &lt;/span&gt;&lt;span style=&quot;font-size:18pt;font-family:Arial,sans-serif;color:#000000;background-color:transparent;font-weight:700;font-style:normal;font-variant:normal;text-decoration:none;vertical-align:baseline;white-space:pre;white-space:pre-wrap;&quot;&gt;train LLM to understand tactile signals&lt;/span&gt;&lt;span style=&quot;font-size:18pt;font-family:Arial,sans-serif;color:#000000;background-color:transparent;font-weight:400;font-style:normal;font-variant:normal;text-decoration:none;vertical-align:baseline;white-space:pre;white-space:pre-wrap;&quot;&gt; by projecting encoder output embeddings to LLM embeddings&lt;/span&gt;&lt;/p&gt;&lt;/li&gt;&lt;/ol&gt;&lt;img width=&quot;60px;&quot; height=&quot;60px;&quot; src=&quot;https://lh7-us.googleusercontent.com/slidesz/AGV_vUehiHnuGzxM1b7AY_WJ8PttAKykeRJBUV-hGD-UbvRndsBy8yYCWbkpF9Ljvw1GJ-ayo8Lh6WrbAL6blFcX-rp30rWosxvpYRh-XBjEvmnCVimAfkrvHxe2D5PtS-pqwGZpGpGApZ0lCwdY926twNnsxyodaAxb=s2048?key=fCGoqWm9a3Y12y-OlNXN6w&quot;&gt;&lt;img width=&quot;60px;&quot; height=&quot;60px;&quot; src=&quot;https://lh7-us.googleusercontent.com/slidesz/AGV_vUcghesRFLyrsCkUmgtdYCzv_2RIe86jTc7Vz4ZWC24YJNNIeJuJQaNBn86Fgo5a0L9VIQbT1O2VtOzjG3XzE_hvvaEBcyiQyjPVTl_PxbhjOcjCkj8mBPPSkB845TORXTpSadQcXtfLT4QrkiedL3bEu3CXaEd6=s2048?key=fCGoqWm9a3Y12y-OlNXN6w&quot;&gt;&lt;img width=&quot;60px;&quot; height=&quot;60px;&quot; src=&quot;https://lh7-us.googleusercontent.com/slidesz/AGV_vUehiHnuGzxM1b7AY_WJ8PttAKykeRJBUV-hGD-UbvRndsBy8yYCWbkpF9Ljvw1GJ-ayo8Lh6WrbAL6blFcX-rp30rWosxvpYRh-XBjEvmnCVimAfkrvHxe2D5PtS-pqwGZpGpGApZ0lCwdY926twNnsxyodaAxb=s2048?key=fCGoqWm9a3Y12y-OlNXN6w&quot;&gt;&lt;br&gt;&lt;p dir=&quot;ltr&quot; style=&quot;line-height:1.2;text-align: center;margin-top:0pt;margin-bottom:0pt;&quot;&gt;&lt;span style=&quot;font-size:13.999999999999998pt;font-family:Arial,sans-serif;color:#000000;background-color:transparent;font-weight:400;font-style:normal;font-variant:normal;text-decoration:none;vertical-align:baseline;white-space:pre;white-space:pre-wrap;&quot;&gt;Encoder&lt;/span&gt;&lt;/p&gt;&lt;br&gt;&lt;p dir=&quot;ltr&quot; style=&quot;line-height:1.2;text-align: center;margin-top:0pt;margin-bottom:0pt;&quot;&gt;&lt;span style=&quot;font-size:13.999999999999998pt;font-family:Arial,sans-serif;color:#000000;background-color:transparent;font-weight:400;font-style:normal;font-variant:normal;text-decoration:none;vertical-align:baseline;white-space:pre;white-space:pre-wrap;&quot;&gt;Projection&lt;/span&gt;&lt;/p&gt;&lt;br&gt;&lt;p dir=&quot;ltr&quot; style=&quot;line-height:1.2;text-align: center;margin-top:0pt;margin-bottom:0pt;&quot;&gt;&lt;span style=&quot;font-size:13.999999999999998pt;font-family:Arial,sans-serif;color:#000000;background-color:transparent;font-weight:400;font-style:normal;font-variant:normal;text-decoration:none;vertical-align:baseline;white-space:pre;white-space:pre-wrap;&quot;&gt;LLM&lt;/span&gt;&lt;/p&gt;&lt;br&gt;&lt;ol style=&quot;margin-top:0;margin-bottom:0;padding-inline-start:48px;&quot; start=&quot;3&quot;&gt;&lt;li dir=&quot;ltr&quot; style=&quot;list-style-type:decimal;font-size:18pt;font-family:Arial,sans-serif;color:#000000;background-color:transparent;font-weight:400;font-style:normal;font-variant:normal;text-decoration:none;vertical-align:baseline;white-space:pre;&quot; aria-level=&quot;1&quot;&gt;&lt;p dir=&quot;ltr&quot; style=&quot;line-height:1.38;margin-top:0pt;margin-bottom:12pt;&quot; role=&quot;presentation&quot;&gt;&lt;span style=&quot;font-size:18pt;font-family:Arial,sans-serif;color:#000000;background-color:transparent;font-weight:400;font-style:normal;font-variant:normal;text-decoration:none;vertical-align:baseline;white-space:pre;white-space:pre-wrap;&quot;&gt;End-to-end fine-tuning → &lt;/span&gt;&lt;span style=&quot;font-size:18pt;font-family:Arial,sans-serif;color:#000000;background-color:transparent;font-weight:700;font-style:normal;font-variant:normal;text-decoration:none;vertical-align:baseline;white-space:pre;white-space:pre-wrap;&quot;&gt;improves &lt;/span&gt;&lt;span style=&quot;font-size:18pt;font-family:Arial,sans-serif;color:#000000;background-color:transparent;font-weight:400;font-style:normal;font-variant:normal;text-decoration:none;vertical-align:baseline;white-space:pre;white-space:pre-wrap;&quot;&gt;task performance&lt;/span&gt;&lt;/p&gt;&lt;/li&gt;&lt;/ol&gt;&lt;img width=&quot;60px;&quot; height=&quot;60px;&quot; src=&quot;https://lh7-us.googleusercontent.com/slidesz/AGV_vUehiHnuGzxM1b7AY_WJ8PttAKykeRJBUV-hGD-UbvRndsBy8yYCWbkpF9Ljvw1GJ-ayo8Lh6WrbAL6blFcX-rp30rWosxvpYRh-XBjEvmnCVimAfkrvHxe2D5PtS-pqwGZpGpGApZ0lCwdY926twNnsxyodaAxb=s2048?key=fCGoqWm9a3Y12y-OlNXN6w&quot;&gt;&lt;img width=&quot;60px;&quot; height=&quot;60px;&quot; src=&quot;https://lh7-us.googleusercontent.com/slidesz/AGV_vUcghesRFLyrsCkUmgtdYCzv_2RIe86jTc7Vz4ZWC24YJNNIeJuJQaNBn86Fgo5a0L9VIQbT1O2VtOzjG3XzE_hvvaEBcyiQyjPVTl_PxbhjOcjCkj8mBPPSkB845TORXTpSadQcXtfLT4QrkiedL3bEu3CXaEd6=s2048?key=fCGoqWm9a3Y12y-OlNXN6w&quot;&gt;&lt;img width=&quot;60px;&quot; height=&quot;60px;&quot; src=&quot;https://lh7-us.googleusercontent.com/slidesz/AGV_vUcghesRFLyrsCkUmgtdYCzv_2RIe86jTc7Vz4ZWC24YJNNIeJuJQaNBn86Fgo5a0L9VIQbT1O2VtOzjG3XzE_hvvaEBcyiQyjPVTl_PxbhjOcjCkj8mBPPSkB845TORXTpSadQcXtfLT4QrkiedL3bEu3CXaEd6=s2048?key=fCGoqWm9a3Y12y-OlNXN6w&quot;&gt;&lt;br&gt;&lt;p dir=&quot;ltr&quot; style=&quot;line-height:1.2;text-align: center;margin-top:0pt;margin-bottom:0pt;&quot;&gt;&lt;span style=&quot;font-size:13.999999999999998pt;font-family:Arial,sans-serif;color:#000000;background-color:transparent;font-weight:400;font-style:normal;font-variant:normal;text-decoration:none;vertical-align:baseline;white-space:pre;white-space:pre-wrap;&quot;&gt;Encoder&lt;/span&gt;&lt;/p&gt;&lt;br&gt;&lt;p dir=&quot;ltr&quot; style=&quot;line-height:1.2;text-align: center;margin-top:0pt;margin-bottom:0pt;&quot;&gt;&lt;span style=&quot;font-size:13.999999999999998pt;font-family:Arial,sans-serif;color:#000000;background-color:transparent;font-weight:400;font-style:normal;font-variant:normal;text-decoration:none;vertical-align:baseline;white-space:pre;white-space:pre-wrap;&quot;&gt;Projection&lt;/span&gt;&lt;/p&gt;&lt;br&gt;&lt;p dir=&quot;ltr&quot; style=&quot;line-height:1.2;text-align: center;margin-top:0pt;margin-bottom:0pt;&quot;&gt;&lt;span style=&quot;font-size:13.999999999999998pt;font-family:Arial,sans-serif;color:#000000;background-color:transparent;font-weight:400;font-style:normal;font-variant:normal;text-decoration:none;vertical-align:baseline;white-space:pre;white-space:pre-wrap;&quot;&gt;LLM&lt;/span&gt;&lt;/p&gt;&lt;/b&gt;&lt;br class=&quot;Apple-interchange-newline&quot;&gt;" id="4Cn6fBVAVX3fA8R9ow2b-1">
          <mxCell style="text;whiteSpace=wrap;html=1;" parent="1" vertex="1">
            <mxGeometry x="300" y="167" width="860" height="463" as="geometry" />
          </mxCell>
        </UserObject>
        <mxCell id="4Cn6fBVAVX3fA8R9ow2b-2" value="&lt;span style=&quot;font-size: 20px;&quot;&gt;Encoder&lt;/span&gt;" style="rounded=1;whiteSpace=wrap;html=1;" parent="1" vertex="1">
          <mxGeometry x="350" y="260" width="120" height="60" as="geometry" />
        </mxCell>
        <mxCell id="4Cn6fBVAVX3fA8R9ow2b-3" value="&lt;span style=&quot;font-size: 20px;&quot;&gt;Projection&lt;/span&gt;" style="rounded=1;whiteSpace=wrap;html=1;" parent="1" vertex="1">
          <mxGeometry x="580" y="560" width="120" height="60" as="geometry" />
        </mxCell>
        <mxCell id="4Cn6fBVAVX3fA8R9ow2b-6" value="&lt;font style=&quot;font-size: 20px;&quot;&gt;Encoder&lt;/font&gt;" style="rounded=1;whiteSpace=wrap;html=1;" parent="1" vertex="1">
          <mxGeometry x="350" y="420" width="120" height="60" as="geometry" />
        </mxCell>
        <mxCell id="4Cn6fBVAVX3fA8R9ow2b-7" value="&lt;span style=&quot;font-size: 20px;&quot;&gt;Encoder&lt;/span&gt;" style="rounded=1;whiteSpace=wrap;html=1;" parent="1" vertex="1">
          <mxGeometry x="350" y="560" width="120" height="60" as="geometry" />
        </mxCell>
        <mxCell id="4Cn6fBVAVX3fA8R9ow2b-8" value="&lt;font style=&quot;font-size: 20px;&quot;&gt;Projection&lt;/font&gt;" style="rounded=1;whiteSpace=wrap;html=1;" parent="1" vertex="1">
          <mxGeometry x="580" y="420" width="120" height="60" as="geometry" />
        </mxCell>
        <mxCell id="4Cn6fBVAVX3fA8R9ow2b-9" value="&lt;font style=&quot;font-size: 20px;&quot;&gt;LLM&lt;/font&gt;" style="rounded=1;whiteSpace=wrap;html=1;" parent="1" vertex="1">
          <mxGeometry x="810" y="420" width="120" height="60" as="geometry" />
        </mxCell>
        <mxCell id="4Cn6fBVAVX3fA8R9ow2b-10" value="&lt;span style=&quot;font-size: 20px;&quot;&gt;LLM&lt;/span&gt;" style="rounded=1;whiteSpace=wrap;html=1;" parent="1" vertex="1">
          <mxGeometry x="810" y="560" width="120" height="60" as="geometry" />
        </mxCell>
        <mxCell id="4Cn6fBVAVX3fA8R9ow2b-11" value="" style="shape=trapezoid;perimeter=trapezoidPerimeter;whiteSpace=wrap;html=1;fixedSize=1;rotation=90;size=12.5;" parent="1" vertex="1">
          <mxGeometry x="460" y="272.5" width="60" height="35" as="geometry" />
        </mxCell>
        <mxCell id="4Cn6fBVAVX3fA8R9ow2b-12" value="" style="shape=trapezoid;perimeter=trapezoidPerimeter;whiteSpace=wrap;html=1;fixedSize=1;rotation=90;size=12.5;" parent="1" vertex="1">
          <mxGeometry x="470" y="260" width="60" height="35" as="geometry" />
        </mxCell>
        <mxCell id="4Cn6fBVAVX3fA8R9ow2b-13" value="" style="shape=trapezoid;perimeter=trapezoidPerimeter;whiteSpace=wrap;html=1;fixedSize=1;rotation=90;size=12.5;" parent="1" vertex="1">
          <mxGeometry x="480" y="250" width="60" height="35" as="geometry" />
        </mxCell>
        <UserObject label="&lt;b style=&quot;font-weight:normal;&quot; id=&quot;docs-internal-guid-accd3e40-7fff-78ee-d5f1-57ee264906f2&quot;&gt;&lt;img width=&quot;60px;&quot; height=&quot;60px;&quot; src=&quot;https://lh7-us.googleusercontent.com/slidesz/AGV_vUcghesRFLyrsCkUmgtdYCzv_2RIe86jTc7Vz4ZWC24YJNNIeJuJQaNBn86Fgo5a0L9VIQbT1O2VtOzjG3XzE_hvvaEBcyiQyjPVTl_PxbhjOcjCkj8mBPPSkB845TORXTpSadQcXtfLT4QrkiedL3bEu3CXaEd6=s2048?key=fCGoqWm9a3Y12y-OlNXN6w&quot;&gt;&lt;/b&gt;" link="&lt;b style=&quot;font-weight:normal;&quot; id=&quot;docs-internal-guid-accd3e40-7fff-78ee-d5f1-57ee264906f2&quot;&gt;&lt;img width=&quot;60px;&quot; height=&quot;60px;&quot; src=&quot;https://lh7-us.googleusercontent.com/slidesz/AGV_vUcghesRFLyrsCkUmgtdYCzv_2RIe86jTc7Vz4ZWC24YJNNIeJuJQaNBn86Fgo5a0L9VIQbT1O2VtOzjG3XzE_hvvaEBcyiQyjPVTl_PxbhjOcjCkj8mBPPSkB845TORXTpSadQcXtfLT4QrkiedL3bEu3CXaEd6=s2048?key=fCGoqWm9a3Y12y-OlNXN6w&quot;&gt;&lt;/b&gt;" id="4Cn6fBVAVX3fA8R9ow2b-5">
          <mxCell style="text;whiteSpace=wrap;html=1;" parent="1" vertex="1">
            <mxGeometry x="500" y="272.5" width="70" height="67.5" as="geometry" />
          </mxCell>
        </UserObject>
        <UserObject label="&lt;b style=&quot;font-weight:normal;&quot; id=&quot;docs-internal-guid-accd3e40-7fff-78ee-d5f1-57ee264906f2&quot;&gt;&lt;img width=&quot;60px;&quot; height=&quot;60px;&quot; src=&quot;https://lh7-us.googleusercontent.com/slidesz/AGV_vUcghesRFLyrsCkUmgtdYCzv_2RIe86jTc7Vz4ZWC24YJNNIeJuJQaNBn86Fgo5a0L9VIQbT1O2VtOzjG3XzE_hvvaEBcyiQyjPVTl_PxbhjOcjCkj8mBPPSkB845TORXTpSadQcXtfLT4QrkiedL3bEu3CXaEd6=s2048?key=fCGoqWm9a3Y12y-OlNXN6w&quot;&gt;&lt;/b&gt;" link="&lt;b style=&quot;font-weight:normal;&quot; id=&quot;docs-internal-guid-accd3e40-7fff-78ee-d5f1-57ee264906f2&quot;&gt;&lt;img width=&quot;60px;&quot; height=&quot;60px;&quot; src=&quot;https://lh7-us.googleusercontent.com/slidesz/AGV_vUcghesRFLyrsCkUmgtdYCzv_2RIe86jTc7Vz4ZWC24YJNNIeJuJQaNBn86Fgo5a0L9VIQbT1O2VtOzjG3XzE_hvvaEBcyiQyjPVTl_PxbhjOcjCkj8mBPPSkB845TORXTpSadQcXtfLT4QrkiedL3bEu3CXaEd6=s2048?key=fCGoqWm9a3Y12y-OlNXN6w&quot;&gt;&lt;/b&gt;" id="urVRBV9fjIk2cWN7ZVEi-1">
          <mxCell style="text;whiteSpace=wrap;html=1;" vertex="1" parent="1">
            <mxGeometry x="670" y="440" width="70" height="67.5" as="geometry" />
          </mxCell>
        </UserObject>
        <UserObject label="&lt;b style=&quot;font-weight:normal;&quot; id=&quot;docs-internal-guid-accd3e40-7fff-78ee-d5f1-57ee264906f2&quot;&gt;&lt;img width=&quot;60px;&quot; height=&quot;60px;&quot; src=&quot;https://lh7-us.googleusercontent.com/slidesz/AGV_vUcghesRFLyrsCkUmgtdYCzv_2RIe86jTc7Vz4ZWC24YJNNIeJuJQaNBn86Fgo5a0L9VIQbT1O2VtOzjG3XzE_hvvaEBcyiQyjPVTl_PxbhjOcjCkj8mBPPSkB845TORXTpSadQcXtfLT4QrkiedL3bEu3CXaEd6=s2048?key=fCGoqWm9a3Y12y-OlNXN6w&quot;&gt;&lt;/b&gt;" link="&lt;b style=&quot;font-weight:normal;&quot; id=&quot;docs-internal-guid-accd3e40-7fff-78ee-d5f1-57ee264906f2&quot;&gt;&lt;img width=&quot;60px;&quot; height=&quot;60px;&quot; src=&quot;https://lh7-us.googleusercontent.com/slidesz/AGV_vUcghesRFLyrsCkUmgtdYCzv_2RIe86jTc7Vz4ZWC24YJNNIeJuJQaNBn86Fgo5a0L9VIQbT1O2VtOzjG3XzE_hvvaEBcyiQyjPVTl_PxbhjOcjCkj8mBPPSkB845TORXTpSadQcXtfLT4QrkiedL3bEu3CXaEd6=s2048?key=fCGoqWm9a3Y12y-OlNXN6w&quot;&gt;&lt;/b&gt;" id="urVRBV9fjIk2cWN7ZVEi-2">
          <mxCell style="text;whiteSpace=wrap;html=1;" vertex="1" parent="1">
            <mxGeometry x="670" y="580" width="70" height="67.5" as="geometry" />
          </mxCell>
        </UserObject>
        <UserObject label="&lt;b style=&quot;font-weight:normal;&quot; id=&quot;docs-internal-guid-accd3e40-7fff-78ee-d5f1-57ee264906f2&quot;&gt;&lt;img width=&quot;60px;&quot; height=&quot;60px;&quot; src=&quot;https://lh7-us.googleusercontent.com/slidesz/AGV_vUcghesRFLyrsCkUmgtdYCzv_2RIe86jTc7Vz4ZWC24YJNNIeJuJQaNBn86Fgo5a0L9VIQbT1O2VtOzjG3XzE_hvvaEBcyiQyjPVTl_PxbhjOcjCkj8mBPPSkB845TORXTpSadQcXtfLT4QrkiedL3bEu3CXaEd6=s2048?key=fCGoqWm9a3Y12y-OlNXN6w&quot;&gt;&lt;/b&gt;" link="&lt;b style=&quot;font-weight:normal;&quot; id=&quot;docs-internal-guid-accd3e40-7fff-78ee-d5f1-57ee264906f2&quot;&gt;&lt;img width=&quot;60px;&quot; height=&quot;60px;&quot; src=&quot;https://lh7-us.googleusercontent.com/slidesz/AGV_vUcghesRFLyrsCkUmgtdYCzv_2RIe86jTc7Vz4ZWC24YJNNIeJuJQaNBn86Fgo5a0L9VIQbT1O2VtOzjG3XzE_hvvaEBcyiQyjPVTl_PxbhjOcjCkj8mBPPSkB845TORXTpSadQcXtfLT4QrkiedL3bEu3CXaEd6=s2048?key=fCGoqWm9a3Y12y-OlNXN6w&quot;&gt;&lt;/b&gt;" id="urVRBV9fjIk2cWN7ZVEi-3">
          <mxCell style="text;whiteSpace=wrap;html=1;" vertex="1" parent="1">
            <mxGeometry x="900" y="580" width="70" height="67.5" as="geometry" />
          </mxCell>
        </UserObject>
        <UserObject label="&lt;b style=&quot;font-weight:normal;&quot; id=&quot;docs-internal-guid-09f0427e-7fff-95da-cb18-6de955631a70&quot;&gt;&lt;img width=&quot;60px;&quot; height=&quot;60px;&quot; src=&quot;https://lh7-us.googleusercontent.com/slidesz/AGV_vUehiHnuGzxM1b7AY_WJ8PttAKykeRJBUV-hGD-UbvRndsBy8yYCWbkpF9Ljvw1GJ-ayo8Lh6WrbAL6blFcX-rp30rWosxvpYRh-XBjEvmnCVimAfkrvHxe2D5PtS-pqwGZpGpGApZ0lCwdY926twNnsxyodaAxb=s2048?key=fCGoqWm9a3Y12y-OlNXN6w&quot;&gt;&lt;/b&gt;" link="&lt;b style=&quot;font-weight:normal;&quot; id=&quot;docs-internal-guid-09f0427e-7fff-95da-cb18-6de955631a70&quot;&gt;&lt;img width=&quot;60px;&quot; height=&quot;60px;&quot; src=&quot;https://lh7-us.googleusercontent.com/slidesz/AGV_vUehiHnuGzxM1b7AY_WJ8PttAKykeRJBUV-hGD-UbvRndsBy8yYCWbkpF9Ljvw1GJ-ayo8Lh6WrbAL6blFcX-rp30rWosxvpYRh-XBjEvmnCVimAfkrvHxe2D5PtS-pqwGZpGpGApZ0lCwdY926twNnsxyodaAxb=s2048?key=fCGoqWm9a3Y12y-OlNXN6w&quot;&gt;&lt;/b&gt;" id="urVRBV9fjIk2cWN7ZVEi-4">
          <mxCell style="text;whiteSpace=wrap;html=1;" vertex="1" parent="1">
            <mxGeometry x="900" y="440" width="70" height="70" as="geometry" />
          </mxCell>
        </UserObject>
        <UserObject label="&lt;b style=&quot;font-weight:normal;&quot; id=&quot;docs-internal-guid-09f0427e-7fff-95da-cb18-6de955631a70&quot;&gt;&lt;img width=&quot;60px;&quot; height=&quot;60px;&quot; src=&quot;https://lh7-us.googleusercontent.com/slidesz/AGV_vUehiHnuGzxM1b7AY_WJ8PttAKykeRJBUV-hGD-UbvRndsBy8yYCWbkpF9Ljvw1GJ-ayo8Lh6WrbAL6blFcX-rp30rWosxvpYRh-XBjEvmnCVimAfkrvHxe2D5PtS-pqwGZpGpGApZ0lCwdY926twNnsxyodaAxb=s2048?key=fCGoqWm9a3Y12y-OlNXN6w&quot;&gt;&lt;/b&gt;" link="&lt;b style=&quot;font-weight:normal;&quot; id=&quot;docs-internal-guid-09f0427e-7fff-95da-cb18-6de955631a70&quot;&gt;&lt;img width=&quot;60px;&quot; height=&quot;60px;&quot; src=&quot;https://lh7-us.googleusercontent.com/slidesz/AGV_vUehiHnuGzxM1b7AY_WJ8PttAKykeRJBUV-hGD-UbvRndsBy8yYCWbkpF9Ljvw1GJ-ayo8Lh6WrbAL6blFcX-rp30rWosxvpYRh-XBjEvmnCVimAfkrvHxe2D5PtS-pqwGZpGpGApZ0lCwdY926twNnsxyodaAxb=s2048?key=fCGoqWm9a3Y12y-OlNXN6w&quot;&gt;&lt;/b&gt;" id="urVRBV9fjIk2cWN7ZVEi-5">
          <mxCell style="text;whiteSpace=wrap;html=1;" vertex="1" parent="1">
            <mxGeometry x="440" y="440" width="70" height="70" as="geometry" />
          </mxCell>
        </UserObject>
        <UserObject label="&lt;b style=&quot;font-weight:normal;&quot; id=&quot;docs-internal-guid-09f0427e-7fff-95da-cb18-6de955631a70&quot;&gt;&lt;img width=&quot;60px;&quot; height=&quot;60px;&quot; src=&quot;https://lh7-us.googleusercontent.com/slidesz/AGV_vUehiHnuGzxM1b7AY_WJ8PttAKykeRJBUV-hGD-UbvRndsBy8yYCWbkpF9Ljvw1GJ-ayo8Lh6WrbAL6blFcX-rp30rWosxvpYRh-XBjEvmnCVimAfkrvHxe2D5PtS-pqwGZpGpGApZ0lCwdY926twNnsxyodaAxb=s2048?key=fCGoqWm9a3Y12y-OlNXN6w&quot;&gt;&lt;/b&gt;" link="&lt;b style=&quot;font-weight:normal;&quot; id=&quot;docs-internal-guid-09f0427e-7fff-95da-cb18-6de955631a70&quot;&gt;&lt;img width=&quot;60px;&quot; height=&quot;60px;&quot; src=&quot;https://lh7-us.googleusercontent.com/slidesz/AGV_vUehiHnuGzxM1b7AY_WJ8PttAKykeRJBUV-hGD-UbvRndsBy8yYCWbkpF9Ljvw1GJ-ayo8Lh6WrbAL6blFcX-rp30rWosxvpYRh-XBjEvmnCVimAfkrvHxe2D5PtS-pqwGZpGpGApZ0lCwdY926twNnsxyodaAxb=s2048?key=fCGoqWm9a3Y12y-OlNXN6w&quot;&gt;&lt;/b&gt;" id="urVRBV9fjIk2cWN7ZVEi-6">
          <mxCell style="text;whiteSpace=wrap;html=1;" vertex="1" parent="1">
            <mxGeometry x="440" y="580" width="70" height="70" as="geometry" />
          </mxCell>
        </UserObject>
        <mxCell id="urVRBV9fjIk2cWN7ZVEi-7" value="" style="endArrow=classic;html=1;rounded=0;entryX=0;entryY=0.5;entryDx=0;entryDy=0;strokeWidth=3;" edge="1" parent="1" source="4Cn6fBVAVX3fA8R9ow2b-6" target="4Cn6fBVAVX3fA8R9ow2b-8">
          <mxGeometry width="50" height="50" relative="1" as="geometry">
            <mxPoint x="690" y="450" as="sourcePoint" />
            <mxPoint x="740" y="400" as="targetPoint" />
          </mxGeometry>
        </mxCell>
        <mxCell id="urVRBV9fjIk2cWN7ZVEi-8" value="" style="endArrow=classic;html=1;rounded=0;entryX=0;entryY=0.5;entryDx=0;entryDy=0;strokeWidth=3;" edge="1" parent="1" target="4Cn6fBVAVX3fA8R9ow2b-9">
          <mxGeometry width="50" height="50" relative="1" as="geometry">
            <mxPoint x="700" y="450" as="sourcePoint" />
            <mxPoint x="590" y="460" as="targetPoint" />
          </mxGeometry>
        </mxCell>
        <mxCell id="urVRBV9fjIk2cWN7ZVEi-9" value="" style="endArrow=classic;html=1;rounded=0;entryX=0;entryY=0.5;entryDx=0;entryDy=0;exitX=1;exitY=0.5;exitDx=0;exitDy=0;strokeWidth=3;" edge="1" parent="1" source="4Cn6fBVAVX3fA8R9ow2b-7" target="4Cn6fBVAVX3fA8R9ow2b-3">
          <mxGeometry width="50" height="50" relative="1" as="geometry">
            <mxPoint x="480" y="460" as="sourcePoint" />
            <mxPoint x="590" y="460" as="targetPoint" />
          </mxGeometry>
        </mxCell>
        <mxCell id="urVRBV9fjIk2cWN7ZVEi-10" value="" style="endArrow=classic;html=1;rounded=0;exitX=1;exitY=0.5;exitDx=0;exitDy=0;entryX=0;entryY=0.5;entryDx=0;entryDy=0;strokeWidth=3;" edge="1" parent="1" source="4Cn6fBVAVX3fA8R9ow2b-3" target="4Cn6fBVAVX3fA8R9ow2b-10">
          <mxGeometry width="50" height="50" relative="1" as="geometry">
            <mxPoint x="490" y="470" as="sourcePoint" />
            <mxPoint x="600" y="470" as="targetPoint" />
          </mxGeometry>
        </mxCell>
      </root>
    </mxGraphModel>
  </diagram>
</mxfile>
